<?xml version="1.0" encoding="utf-8"?>
<!-- Generator: Adobe Illustrator 23.0.2, SVG Export Plug-In . SVG Version: 6.00 Build 0)  -->
<svg version="1.1" id="Layer_1" xmlns="http://www.w3.org/2000/svg" xmlns:xlink="http://www.w3.org/1999/xlink" x="0px" y="0px"
	 viewBox="0 0 186.4 47.6" style="enable-background:new 0 0 186.4 47.6;" xml:space="preserve">
<style type="text/css">
	.st0{fill:#A6A8AB;}
	.st1{fill:#414E66;}
	.st2{fill:#8A288A;}
</style>
<path class="st0" d="M14.5,8.1h-3.2c-0.4,0-0.7,0.3-0.7,0.7V15c0,0.4,0.3,0.7,0.7,0.7h3.2c0.4,0,0.7-0.4,0.7-0.7V8.8
	C15.2,8.4,14.8,8.1,14.5,8.1z"/>
<path class="st0" d="M14.5,17.8h-3.2c-0.4,0-0.7,0.3-0.7,0.7v6.3c0,0.4,0.3,0.7,0.7,0.7h3.2c0.4,0,0.7-0.4,0.7-0.7v-6.3
	C15.2,18.2,14.8,17.8,14.5,17.8z"/>
<path class="st1" d="M14.5,27.6h-3.2c-0.4,0-0.7,0.3-0.7,0.7v6.3c0,0.4,0.3,0.7,0.7,0.7h3.2c0.4,0,0.7-0.4,0.7-0.7v-6.3
	C15.2,27.9,14.8,27.6,14.5,27.6z"/>
<path class="st0" d="M27.9,8.1h-3.2c-0.4,0-0.7,0.3-0.7,0.7V15c0,0.4,0.3,0.7,0.7,0.7h3.2c0.4,0,0.7-0.4,0.7-0.7V8.8
	C28.6,8.4,28.2,8.1,27.9,8.1z"/>
<path class="st1" d="M27.9,17.8h-3.2c-0.4,0-0.7,0.3-0.7,0.7v6.3c0,0.4,0.3,0.7,0.7,0.7h3.2c0.4,0,0.7-0.4,0.7-0.7v-6.3
	C28.6,18.2,28.2,17.8,27.9,17.8z"/>
<path class="st0" d="M27.9,27.6h-3.2c-0.4,0-0.7,0.3-0.7,0.7v6.3c0,0.4,0.3,0.7,0.7,0.7h3.2c0.4,0,0.7-0.4,0.7-0.7v-6.3
	C28.6,27.9,28.2,27.6,27.9,27.6z"/>
<path class="st2" d="M21.2,12.8h-3.2c-0.4,0-0.7,0.3-0.7,0.7v6.3c0,0.4,0.3,0.7,0.7,0.7h3.2c0.4,0,0.7-0.4,0.7-0.7v-6.3
	C21.9,13.1,21.5,12.8,21.2,12.8z"/>
<path class="st1" d="M21.2,22.5h-3.2c-0.4,0-0.7,0.3-0.7,0.7v6.3c0,0.4,0.3,0.7,0.7,0.7h3.2c0.4,0,0.7-0.4,0.7-0.7v-6.3
	C21.9,22.9,21.5,22.5,21.2,22.5z"/>
<path class="st2" d="M21.2,32.3h-3.2c-0.4,0-0.7,0.3-0.7,0.7v6.3c0,0.4,0.3,0.7,0.7,0.7h3.2c0.4,0,0.7-0.4,0.7-0.7V33
	C21.9,32.6,21.5,32.3,21.2,32.3z"/>
<path class="st1" d="M34.6,8.1h-3.2c-0.4,0-0.7,0.3-0.7,0.7V15c0,0.4,0.3,0.7,0.7,0.7h3.2c0.4,0,0.7-0.4,0.7-0.7V8.8
	C35.3,8.4,34.9,8.1,34.6,8.1z"/>
<path class="st0" d="M34.6,17.8h-3.2c-0.4,0-0.7,0.3-0.7,0.7v6.3c0,0.4,0.3,0.7,0.7,0.7h3.2c0.4,0,0.7-0.4,0.7-0.7v-6.3
	C35.3,18.2,34.9,17.8,34.6,17.8z"/>
<path class="st0" d="M34.6,27.6h-3.2c-0.4,0-0.7,0.3-0.7,0.7v6.3c0,0.4,0.3,0.7,0.7,0.7h3.2c0.4,0,0.7-0.4,0.7-0.7v-6.3
	C35.3,27.9,34.9,27.6,34.6,27.6z"/>
<g>
	<path class="st1" d="M52.5,20.9l-4.2-2.4c-2.3-1.3-2.9-2-2.9-3.1c0-1.6,1.1-2.5,3.7-2.5c2.3,0,4.6,0.1,7,0.4h0.1
		c0.4,0,0.6-0.3,0.6-0.6V10c0-0.4-0.3-0.6-0.6-0.7c-1.2-0.3-4.4-0.6-6.8-0.6c-6.6,0-8.8,2.8-8.8,6.7c0,2.5,0.9,4.5,4.2,6.5l4.7,2.8
		c2.3,1.4,3,2.1,3,3.5c0,2-1,3.2-4.1,3.2c-1.3,0-4.8-0.2-6.3-0.4h-0.1c-0.4,0-0.7,0.3-0.7,0.7v2.5c0,0.4,0.3,0.6,0.7,0.7
		c1.7,0.4,3.6,0.6,6.3,0.6c7.1,0,9.3-3.8,9.3-7.4C57.4,25.3,56.4,23,52.5,20.9z"/>
	<path class="st1" d="M69.8,31.8h-1.9c-1.3,0-1.4-0.2-1.4-2V18.8h3.2c0.4,0,0.7-0.3,0.7-0.7V16c0-0.4-0.3-0.7-0.7-0.7h-3.2v-3.6
		c0-0.4-0.2-0.5-0.6-0.5h-0.1l-3.3,0.6c-0.4,0.1-0.7,0.3-0.7,0.7v2.9h-3.3c-0.4,0-0.7,0.3-0.7,0.7v1.6c0,0.4,0.3,0.6,0.7,0.7
		l3.3,0.5v11.1c0,4.7,1.6,5.6,5.6,5.6c0.8,0,1.6-0.1,2.4-0.2c0.5-0.1,0.7-0.3,0.7-0.6v-2.2C70.5,32,70.2,31.8,69.8,31.8z"/>
	<path class="st1" d="M80,15c-2.4,0-4.5,0.3-5.9,0.6c-0.5,0.1-0.7,0.4-0.7,0.7v2.3c0,0.5,0.3,0.6,0.6,0.6h0.2
		c1.2-0.1,3.5-0.3,5.8-0.3c2.1,0,3.1,0.6,3.1,2.9v1.6h-2.2c-6.1,0-8.6,2.1-8.6,6.1v0.1c0,4.8,3.2,5.9,6.1,5.9c1.7,0,3.4-0.6,5-1.6
		v0.6c0,0.4,0.3,0.7,0.7,0.7h3c0.4,0,0.7-0.3,0.7-0.7V21.8C87.7,17.2,85,15,80,15z M83.1,30.8c-1,0.6-2.3,1-3.6,1
		c-1.8,0-2.5-0.5-2.5-2.2v-0.1c0-2,0.7-3,3.9-3h2.2V30.8z"/>
	<path class="st1" d="M107,15.3h-8.3c-6.1,0-8.4,3-8.4,6.5V22c0,1.8,0.4,3,1.4,4.1c-1,0.7-1.4,1.8-1.4,2.9v0c0,1.3,0.6,2.5,1.6,3.2
		c-1.1,1-1.8,2.4-1.8,3.9v0.3c0,3.7,3,5.9,8.8,5.9c6,0,8.7-1.9,8.7-5.5v-0.2c0-3.8-3.1-4.5-7.9-5.7l-4.2-1c-0.8-0.2-1.2-0.5-1.2-1.2
		c0-0.3,0.2-0.6,0.6-0.9c0.7,0.3,2,0.6,3.8,0.6c5.3,0,8.4-2,8.4-6.4v-0.2c0-1.2-0.3-2-0.9-2.8l1.2-0.5c0.4-0.2,0.6-0.2,0.6-0.8v-1.5
		C107.9,15.7,107.5,15.3,107,15.3z M94.7,36.2c0-1.3,0.4-1.7,0.9-2.5l3.1,0.7c3.7,0.9,4.2,1.3,4.2,2.1v0.2c0,1.3-0.6,2-4,2
		c-3.3,0-4.2-0.9-4.2-2.3V36.2z M102.5,22.1c0,1.8-0.8,2.8-3.8,2.8c-3.3,0-3.8-1.5-3.8-2.8v-0.3c0-1.7,0.8-3,3.8-3
		c3,0,3.8,1.3,3.8,3V22.1z"/>
	<path class="st1" d="M117.6,15c-5.4,0-8.5,3.5-8.5,9v2.6c0,7,5,8.9,8.5,8.9c3.2,0,4.6-0.2,6.9-0.6c0.6-0.1,0.7-0.4,0.7-0.9v-2.3
		c0-0.4-0.3-0.5-0.6-0.5h-0.1c-1.5,0.1-3.9,0.4-6.5,0.4c-3.4,0-4.2-2.4-4.2-4.5v-0.1h11.5c0.5,0,0.7-0.3,0.7-0.9v-2
		C126.1,18.7,123.1,15,117.6,15z M121.4,23.5h-7.5v-0.1c0-2.8,1.6-4.3,3.8-4.3s3.7,1.6,3.7,4.3V23.5z"/>
	<path class="st1" d="M144.6,21.9c2.2-0.9,3.2-3,3.2-5.3v-0.7c0-5.3-4.5-7.2-10.9-7.2c-2.8,0-5,0.2-5.9,0.4
		c-1.1,0.2-1.6,0.6-1.6,1.9v22.2c0,1.3,0.5,1.7,1.7,1.9c1.1,0.2,3.2,0.4,6.1,0.4c6.6,0,10.7-2,10.7-7.6v-0.6
		C148.1,24.6,146.8,22.8,144.6,21.9z M134.4,12.8c0.7,0,1.7-0.1,2.6-0.1c4.5,0,6.1,0.9,6.1,3.4v0.5c0,1.8-0.9,3.4-4.2,3.4h-4.5V12.8
		z M143.3,27.8c0,2.5-1.4,3.6-5.9,3.6c-0.7,0-2-0.1-2.9-0.1v-7.8h4.5c3.3,0,4.3,1.8,4.3,3.7V27.8z"/>
	<path class="st1" d="M155.5,15.3h-3.2c-0.4,0-0.7,0.3-0.7,0.7v18.5c0,0.4,0.3,0.7,0.7,0.7h3.2c0.4,0,0.7-0.4,0.7-0.7V16
		C156.2,15.6,155.9,15.3,155.5,15.3z"/>
	<path class="st1" d="M155.6,8.1h-3.4c-0.4,0-0.7,0.3-0.7,0.7v3.1c0,0.4,0.4,0.7,0.7,0.7h3.4c0.4,0,0.7-0.3,0.7-0.7V8.8
		C156.3,8.4,156,8.1,155.6,8.1z"/>
	<path class="st1" d="M167.3,15c-5.5,0-8.4,3.7-8.4,8.8v2.9c0,5,2.9,8.8,8.4,8.8c5.5,0,8.4-3.7,8.4-8.8v-2.9
		C175.7,18.8,172.8,15,167.3,15z M171.1,26.7c0,2.9-1.3,4.8-3.8,4.8c-2.5,0-3.8-1.9-3.8-4.8v-2.9c0-2.9,1.3-4.8,3.8-4.8
		c2.5,0,3.8,1.9,3.8,4.8V26.7z"/>
</g>
</svg>
